<svg xmlns="http://www.w3.org/2000/svg" viewBox="0 0 960 380" role="img" aria-label="Peta sebaran sekolah di Indonesia">
<circle cx="467.5" cy="27.5" r="3.5" fill="#1f2937"/>
<circle cx="478.5" cy="27.5" r="3.5" fill="#1f2937"/>
<circle cx="27.5" cy="38.5" r="3.5" fill="#1f2937"/>
<circle cx="467.5" cy="38.5" r="3.5" fill="#1f2937"/>
<circle cx="478.5" cy="38.5" r="3.5" fill="#1f2937"/>
<circle cx="489.5" cy="38.5" r="3.5" fill="#1f2937"/>
<circle cx="27.5" cy="49.5" r="3.5" fill="#1f2937"/>
<circle cx="38.5" cy="49.5" r="3.5" fill="#1f2937"/>
<circle cx="49.5" cy="49.5" r="3.5" fill="#1f2937"/>
<circle cx="60.5" cy="49.5" r="3.5" fill="#1f2937"/>
<circle cx="71.5" cy="49.5" r="3.5" fill="#1f2937"/>
<circle cx="456.5" cy="49.5" r="3.5" fill="#1f2937"/>
<circle cx="467.5" cy="49.5" r="3.5" fill="#1f2937"/>
<circle cx="478.5" cy="49.5" r="3.5" fill="#1f2937"/>
<circle cx="489.5" cy="49.5" r="3.5" fill="#1f2937"/>
<circle cx="27.5" cy="60.5" r="3.5" fill="#1f2937"/>
<circle cx="38.5" cy="60.5" r="3.5" fill="#1f2937"/>
<circle cx="49.5" cy="60.5" r="3.5" fill="#1f2937"/>
<circle cx="60.5" cy="60.5" r="3.5" fill="#1f2937"/>
<circle cx="71.5" cy="60.5" r="3.5" fill="#1f2937"/>
<circle cx="445.5" cy="60.5" r="3.5" fill="#1f2937"/>
<circle cx="456.5" cy="60.5" r="3.5" fill="#1f2937"/>
<circle cx="467.5" cy="60.5" r="3.5" fill="#1f2937"/>
<circle cx="478.5" cy="60.5" r="3.5" fill="#1f2937"/>
<circle cx="489.5" cy="60.5" r="3.5" fill="#1f2937"/>
<circle cx="38.5" cy="71.5" r="3.5" fill="#1f2937"/>
<circle cx="49.5" cy="71.5" r="3.5" fill="#1f2937"/>
<circle cx="60.5" cy="71.5" r="3.5" fill="#1f2937"/>
<circle cx="71.5" cy="71.5" r="3.5" fill="#1f2937"/>
<circle cx="82.5" cy="71.5" r="3.5" fill="#1f2937"/>
<circle cx="445.5" cy="71.5" r="3.5" fill="#1f2937"/>
<circle cx="456.5" cy="71.5" r="3.5" fill="#1f2937"/>
<circle cx="467.5" cy="71.5" r="3.5" fill="#1f2937"/>
<circle cx="478.5" cy="71.5" r="3.5" fill="#1f2937"/>
<circle cx="49.5" cy="82.5" r="3.5" fill="#1f2937"/>
<circle cx="60.5" cy="82.5" r="3.5" fill="#1f2937"/>
<circle cx="71.5" cy="82.5" r="3.5" fill="#1f2937"/>
<circle cx="82.5" cy="82.5" r="3.5" fill="#1f2937"/>
<circle cx="93.5" cy="82.5" r="3.5" fill="#1f2937"/>
<circle cx="434.5" cy="82.5" r="3.5" fill="#1f2937"/>
<circle cx="445.5" cy="82.5" r="3.5" fill="#1f2937"/>
<circle cx="456.5" cy="82.5" r="3.5" fill="#1f2937"/>
<circle cx="467.5" cy="82.5" r="3.5" fill="#1f2937"/>
<circle cx="478.5" cy="82.5" r="3.5" fill="#1f2937"/>
<circle cx="49.5" cy="93.5" r="3.5" fill="#1f2937"/>
<circle cx="60.5" cy="93.5" r="3.5" fill="#1f2937"/>
<circle cx="71.5" cy="93.5" r="3.5" fill="#1f2937"/>
<circle cx="82.5" cy="93.5" r="3.5" fill="#1f2937"/>
<circle cx="93.5" cy="93.5" r="3.5" fill="#1f2937"/>
<circle cx="104.5" cy="93.5" r="3.5" fill="#1f2937"/>
<circle cx="423.5" cy="93.5" r="3.5" fill="#1f2937"/>
<circle cx="434.5" cy="93.5" r="3.5" fill="#1f2937"/>
<circle cx="445.5" cy="93.5" r="3.5" fill="#1f2937"/>
<circle cx="456.5" cy="93.5" r="3.5" fill="#1f2937"/>
<circle cx="467.5" cy="93.5" r="3.5" fill="#1f2937"/>
<circle cx="60.5" cy="104.5" r="3.5" fill="#1f2937"/>
<circle cx="71.5" cy="104.5" r="3.5" fill="#1f2937"/>
<circle cx="82.5" cy="104.5" r="3.5" fill="#1f2937"/>
<circle cx="93.5" cy="104.5" r="3.5" fill="#1f2937"/>
<circle cx="104.5" cy="104.5" r="3.5" fill="#1f2937"/>
<circle cx="115.5" cy="104.5" r="3.5" fill="#1f2937"/>
<circle cx="412.5" cy="104.5" r="3.5" fill="#1f2937"/>
<circle cx="423.5" cy="104.5" r="3.5" fill="#1f2937"/>
<circle cx="434.5" cy="104.5" r="3.5" fill="#1f2937"/>
<circle cx="445.5" cy="104.5" r="3.5" fill="#1f2937"/>
<circle cx="456.5" cy="104.5" r="3.5" fill="#1f2937"/>
<circle cx="467.5" cy="104.5" r="3.5" fill="#1f2937"/>
<circle cx="71.5" cy="115.5" r="3.5" fill="#1f2937"/>
<circle cx="82.5" cy="115.5" r="3.5" fill="#1f2937"/>
<circle cx="93.5" cy="115.5" r="3.5" fill="#1f2937"/>
<circle cx="104.5" cy="115.5" r="3.5" fill="#1f2937"/>
<circle cx="115.5" cy="115.5" r="3.5" fill="#1f2937"/>
<circle cx="126.5" cy="115.5" r="3.5" fill="#1f2937"/>
<circle cx="137.5" cy="115.5" r="3.5" fill="#1f2937"/>
<circle cx="401.5" cy="115.5" r="3.5" fill="#1f2937"/>
<circle cx="412.5" cy="115.5" r="3.5" fill="#1f2937"/>
<circle cx="423.5" cy="115.5" r="3.5" fill="#1f2937"/>
<circle cx="434.5" cy="115.5" r="3.5" fill="#1f2937"/>
<circle cx="445.5" cy="115.5" r="3.5" fill="#1f2937"/>
<circle cx="456.5" cy="115.5" r="3.5" fill="#1f2937"/>
<circle cx="467.5" cy="115.5" r="3.5" fill="#1f2937"/>
<circle cx="621.5" cy="115.5" r="3.5" fill="#1f2937"/>
<circle cx="82.5" cy="126.5" r="3.5" fill="#1f2937"/>
<circle cx="93.5" cy="126.5" r="3.5" fill="#1f2937"/>
<circle cx="104.5" cy="126.5" r="3.5" fill="#1f2937"/>
<circle cx="115.5" cy="126.5" r="3.5" fill="#1f2937"/>
<circle cx="126.5" cy="126.5" r="3.5" fill="#1f2937"/>
<circle cx="137.5" cy="126.5" r="3.5" fill="#1f2937"/>
<circle cx="148.5" cy="126.5" r="3.5" fill="#1f2937"/>
<circle cx="313.5" cy="126.5" r="3.5" fill="#1f2937"/>
<circle cx="324.5" cy="126.5" r="3.5" fill="#1f2937"/>
<circle cx="335.5" cy="126.5" r="3.5" fill="#1f2937"/>
<circle cx="346.5" cy="126.5" r="3.5" fill="#1f2937"/>
<circle cx="357.5" cy="126.5" r="3.5" fill="#1f2937"/>
<circle cx="368.5" cy="126.5" r="3.5" fill="#1f2937"/>
<circle cx="379.5" cy="126.5" r="3.5" fill="#1f2937"/>
<circle cx="390.5" cy="126.5" r="3.5" fill="#1f2937"/>
<circle cx="401.5" cy="126.5" r="3.5" fill="#1f2937"/>
<circle cx="412.5" cy="126.5" r="3.5" fill="#1f2937"/>
<circle cx="423.5" cy="126.5" r="3.5" fill="#1f2937"/>
<circle cx="434.5" cy="126.5" r="3.5" fill="#1f2937"/>
<circle cx="445.5" cy="126.5" r="3.5" fill="#1f2937"/>
<circle cx="456.5" cy="126.5" r="3.5" fill="#1f2937"/>
<circle cx="467.5" cy="126.5" r="3.5" fill="#1f2937"/>
<circle cx="588.5" cy="126.5" r="3.5" fill="#1f2937"/>
<circle cx="599.5" cy="126.5" r="3.5" fill="#1f2937"/>
<circle cx="610.5" cy="126.5" r="3.5" fill="#1f2937"/>
<circle cx="621.5" cy="126.5" r="3.5" fill="#1f2937"/>
<circle cx="676.5" cy="126.5" r="3.5" fill="#1f2937"/>
<circle cx="93.5" cy="137.5" r="3.5" fill="#1f2937"/>
<circle cx="104.5" cy="137.5" r="3.5" fill="#1f2937"/>
<circle cx="115.5" cy="137.5" r="3.5" fill="#1f2937"/>
<circle cx="126.5" cy="137.5" r="3.5" fill="#1f2937"/>
<circle cx="137.5" cy="137.5" r="3.5" fill="#1f2937"/>
<circle cx="148.5" cy="137.5" r="3.5" fill="#1f2937"/>
<circle cx="159.5" cy="137.5" r="3.5" fill="#1f2937"/>
<circle cx="170.5" cy="137.5" r="3.5" fill="#1f2937"/>
<circle cx="203.5" cy="137.5" r="3.5" fill="#1f2937"/>
<circle cx="302.5" cy="137.5" r="3.5" fill="#1f2937"/>
<circle cx="313.5" cy="137.5" r="3.5" fill="#1f2937"/>
<circle cx="324.5" cy="137.5" r="3.5" fill="#1f2937"/>
<circle cx="335.5" cy="137.5" r="3.5" fill="#1f2937"/>
<circle cx="346.5" cy="137.5" r="3.5" fill="#1f2937"/>
<circle cx="357.5" cy="137.5" r="3.5" fill="#1f2937"/>
<circle cx="368.5" cy="137.5" r="3.5" fill="#1f2937"/>
<circle cx="379.5" cy="137.5" r="3.5" fill="#1f2937"/>
<circle cx="390.5" cy="137.5" r="3.5" fill="#1f2937"/>
<circle cx="401.5" cy="137.5" r="3.5" fill="#1f2937"/>
<circle cx="412.5" cy="137.5" r="3.5" fill="#1f2937"/>
<circle cx="423.5" cy="137.5" r="3.5" fill="#1f2937"/>
<circle cx="434.5" cy="137.5" r="3.5" fill="#1f2937"/>
<circle cx="445.5" cy="137.5" r="3.5" fill="#1f2937"/>
<circle cx="456.5" cy="137.5" r="3.5" fill="#1f2937"/>
<circle cx="467.5" cy="137.5" r="3.5" fill="#1f2937"/>
<circle cx="544.5" cy="137.5" r="3.5" fill="#1f2937"/>
<circle cx="555.5" cy="137.5" r="3.5" fill="#1f2937"/>
<circle cx="566.5" cy="137.5" r="3.5" fill="#1f2937"/>
<circle cx="577.5" cy="137.5" r="3.5" fill="#1f2937"/>
<circle cx="588.5" cy="137.5" r="3.5" fill="#1f2937"/>
<circle cx="599.5" cy="137.5" r="3.5" fill="#1f2937"/>
<circle cx="610.5" cy="137.5" r="3.5" fill="#1f2937"/>
<circle cx="621.5" cy="137.5" r="3.5" fill="#1f2937"/>
<circle cx="676.5" cy="137.5" r="3.5" fill="#1f2937"/>
<circle cx="687.5" cy="137.5" r="3.5" fill="#1f2937"/>
<circle cx="93.5" cy="148.5" r="3.5" fill="#1f2937"/>
<circle cx="104.5" cy="148.5" r="3.5" fill="#1f2937"/>
<circle cx="115.5" cy="148.5" r="3.5" fill="#1f2937"/>
<circle cx="126.5" cy="148.5" r="3.5" fill="#1f2937"/>
<circle cx="137.5" cy="148.5" r="3.5" fill="#1f2937"/>
<circle cx="148.5" cy="148.5" r="3.5" fill="#1f2937"/>
<circle cx="159.5" cy="148.5" r="3.5" fill="#1f2937"/>
<circle cx="170.5" cy="148.5" r="3.5" fill="#1f2937"/>
<circle cx="181.5" cy="148.5" r="3.5" fill="#1f2937"/>
<circle cx="302.5" cy="148.5" r="3.5" fill="#1f2937"/>
<circle cx="313.5" cy="148.5" r="3.5" fill="#1f2937"/>
<circle cx="324.5" cy="148.5" r="3.5" fill="#1f2937"/>
<circle cx="335.5" cy="148.5" r="3.5" fill="#1f2937"/>
<circle cx="346.5" cy="148.5" r="3.5" fill="#1f2937"/>
<circle cx="357.5" cy="148.5" r="3.5" fill="#1f2937"/>
<circle cx="368.5" cy="148.5" r="3.5" fill="#1f2937"/>
<circle cx="379.5" cy="148.5" r="3.5" fill="#1f2937"/>
<circle cx="390.5" cy="148.5" r="3.5" fill="#1f2937"/>
<circle cx="401.5" cy="148.5" r="3.5" fill="#1f2937"/>
<circle cx="412.5" cy="148.5" r="3.5" fill="#1f2937"/>
<circle cx="423.5" cy="148.5" r="3.5" fill="#1f2937"/>
<circle cx="434.5" cy="148.5" r="3.5" fill="#1f2937"/>
<circle cx="445.5" cy="148.5" r="3.5" fill="#1f2937"/>
<circle cx="456.5" cy="148.5" r="3.5" fill="#1f2937"/>
<circle cx="467.5" cy="148.5" r="3.5" fill="#1f2937"/>
<circle cx="533.5" cy="148.5" r="3.5" fill="#1f2937"/>
<circle cx="544.5" cy="148.5" r="3.5" fill="#1f2937"/>
<circle cx="555.5" cy="148.5" r="3.5" fill="#1f2937"/>
<circle cx="566.5" cy="148.5" r="3.5" fill="#1f2937"/>
<circle cx="577.5" cy="148.5" r="3.5" fill="#1f2937"/>
<circle cx="588.5" cy="148.5" r="3.5" fill="#1f2937"/>
<circle cx="599.5" cy="148.5" r="3.5" fill="#1f2937"/>
<circle cx="676.5" cy="148.5" r="3.5" fill="#1f2937"/>
<circle cx="687.5" cy="148.5" r="3.5" fill="#1f2937"/>
<circle cx="104.5" cy="159.5" r="3.5" fill="#1f2937"/>
<circle cx="115.5" cy="159.5" r="3.5" fill="#1f2937"/>
<circle cx="126.5" cy="159.5" r="3.5" fill="#1f2937"/>
<circle cx="137.5" cy="159.5" r="3.5" fill="#1f2937"/>
<circle cx="148.5" cy="159.5" r="3.5" fill="#1f2937"/>
<circle cx="159.5" cy="159.5" r="3.5" fill="#1f2937"/>
<circle cx="170.5" cy="159.5" r="3.5" fill="#1f2937"/>
<circle cx="181.5" cy="159.5" r="3.5" fill="#1f2937"/>
<circle cx="302.5" cy="159.5" r="3.5" fill="#1f2937"/>
<circle cx="313.5" cy="159.5" r="3.5" fill="#1f2937"/>
<circle cx="324.5" cy="159.5" r="3.5" fill="#1f2937"/>
<circle cx="335.5" cy="159.5" r="3.5" fill="#1f2937"/>
<circle cx="346.5" cy="159.5" r="3.5" fill="#1f2937"/>
<circle cx="357.5" cy="159.5" r="3.5" fill="#1f2937"/>
<circle cx="368.5" cy="159.5" r="3.5" fill="#1f2937"/>
<circle cx="379.5" cy="159.5" r="3.5" fill="#1f2937"/>
<circle cx="390.5" cy="159.5" r="3.5" fill="#1f2937"/>
<circle cx="401.5" cy="159.5" r="3.5" fill="#1f2937"/>
<circle cx="412.5" cy="159.5" r="3.5" fill="#1f2937"/>
<circle cx="423.5" cy="159.5" r="3.5" fill="#1f2937"/>
<circle cx="434.5" cy="159.5" r="3.5" fill="#1f2937"/>
<circle cx="445.5" cy="159.5" r="3.5" fill="#1f2937"/>
<circle cx="456.5" cy="159.5" r="3.5" fill="#1f2937"/>
<circle cx="467.5" cy="159.5" r="3.5" fill="#1f2937"/>
<circle cx="522.5" cy="159.5" r="3.5" fill="#1f2937"/>
<circle cx="533.5" cy="159.5" r="3.5" fill="#1f2937"/>
<circle cx="544.5" cy="159.5" r="3.5" fill="#1f2937"/>
<circle cx="555.5" cy="159.5" r="3.5" fill="#1f2937"/>
<circle cx="566.5" cy="159.5" r="3.5" fill="#1f2937"/>
<circle cx="577.5" cy="159.5" r="3.5" fill="#1f2937"/>
<circle cx="676.5" cy="159.5" r="3.5" fill="#1f2937"/>
<circle cx="764.5" cy="159.5" r="3.5" fill="#1f2937"/>
<circle cx="115.5" cy="170.5" r="3.5" fill="#1f2937"/>
<circle cx="126.5" cy="170.5" r="3.5" fill="#1f2937"/>
<circle cx="137.5" cy="170.5" r="3.5" fill="#1f2937"/>
<circle cx="148.5" cy="170.5" r="3.5" fill="#1f2937"/>
<circle cx="159.5" cy="170.5" r="3.5" fill="#1f2937"/>
<circle cx="170.5" cy="170.5" r="3.5" fill="#1f2937"/>
<circle cx="181.5" cy="170.5" r="3.5" fill="#1f2937"/>
<circle cx="192.5" cy="170.5" r="3.5" fill="#1f2937"/>
<circle cx="313.5" cy="170.5" r="3.5" fill="#1f2937"/>
<circle cx="324.5" cy="170.5" r="3.5" fill="#1f2937"/>
<circle cx="335.5" cy="170.5" r="3.5" fill="#1f2937"/>
<circle cx="346.5" cy="170.5" r="3.5" fill="#1f2937"/>
<circle cx="357.5" cy="170.5" r="3.5" fill="#1f2937"/>
<circle cx="368.5" cy="170.5" r="3.5" fill="#1f2937"/>
<circle cx="379.5" cy="170.5" r="3.5" fill="#1f2937"/>
<circle cx="390.5" cy="170.5" r="3.5" fill="#1f2937"/>
<circle cx="401.5" cy="170.5" r="3.5" fill="#1f2937"/>
<circle cx="412.5" cy="170.5" r="3.5" fill="#1f2937"/>
<circle cx="423.5" cy="170.5" r="3.5" fill="#1f2937"/>
<circle cx="434.5" cy="170.5" r="3.5" fill="#1f2937"/>
<circle cx="445.5" cy="170.5" r="3.5" fill="#1f2937"/>
<circle cx="456.5" cy="170.5" r="3.5" fill="#1f2937"/>
<circle cx="500.5" cy="170.5" r="3.5" fill="#1f2937"/>
<circle cx="511.5" cy="170.5" r="3.5" fill="#1f2937"/>
<circle cx="522.5" cy="170.5" r="3.5" fill="#1f2937"/>
<circle cx="533.5" cy="170.5" r="3.5" fill="#1f2937"/>
<circle cx="544.5" cy="170.5" r="3.5" fill="#1f2937"/>
<circle cx="577.5" cy="170.5" r="3.5" fill="#1f2937"/>
<circle cx="588.5" cy="170.5" r="3.5" fill="#1f2937"/>
<circle cx="753.5" cy="170.5" r="3.5" fill="#1f2937"/>
<circle cx="764.5" cy="170.5" r="3.5" fill="#1f2937"/>
<circle cx="775.5" cy="170.5" r="3.5" fill="#1f2937"/>
<circle cx="786.5" cy="170.5" r="3.5" fill="#1f2937"/>
<circle cx="797.5" cy="170.5" r="3.5" fill="#1f2937"/>
<circle cx="126.5" cy="181.5" r="3.5" fill="#1f2937"/>
<circle cx="137.5" cy="181.5" r="3.5" fill="#1f2937"/>
<circle cx="148.5" cy="181.5" r="3.5" fill="#1f2937"/>
<circle cx="159.5" cy="181.5" r="3.5" fill="#1f2937"/>
<circle cx="170.5" cy="181.5" r="3.5" fill="#1f2937"/>
<circle cx="181.5" cy="181.5" r="3.5" fill="#1f2937"/>
<circle cx="192.5" cy="181.5" r="3.5" fill="#1f2937"/>
<circle cx="203.5" cy="181.5" r="3.5" fill="#1f2937"/>
<circle cx="313.5" cy="181.5" r="3.5" fill="#1f2937"/>
<circle cx="324.5" cy="181.5" r="3.5" fill="#1f2937"/>
<circle cx="335.5" cy="181.5" r="3.5" fill="#1f2937"/>
<circle cx="346.5" cy="181.5" r="3.5" fill="#1f2937"/>
<circle cx="357.5" cy="181.5" r="3.5" fill="#1f2937"/>
<circle cx="368.5" cy="181.5" r="3.5" fill="#1f2937"/>
<circle cx="379.5" cy="181.5" r="3.5" fill="#1f2937"/>
<circle cx="390.5" cy="181.5" r="3.5" fill="#1f2937"/>
<circle cx="401.5" cy="181.5" r="3.5" fill="#1f2937"/>
<circle cx="412.5" cy="181.5" r="3.5" fill="#1f2937"/>
<circle cx="423.5" cy="181.5" r="3.5" fill="#1f2937"/>
<circle cx="434.5" cy="181.5" r="3.5" fill="#1f2937"/>
<circle cx="445.5" cy="181.5" r="3.5" fill="#1f2937"/>
<circle cx="500.5" cy="181.5" r="3.5" fill="#1f2937"/>
<circle cx="511.5" cy="181.5" r="3.5" fill="#1f2937"/>
<circle cx="522.5" cy="181.5" r="3.5" fill="#1f2937"/>
<circle cx="533.5" cy="181.5" r="3.5" fill="#1f2937"/>
<circle cx="544.5" cy="181.5" r="3.5" fill="#1f2937"/>
<circle cx="555.5" cy="181.5" r="3.5" fill="#1f2937"/>
<circle cx="566.5" cy="181.5" r="3.5" fill="#1f2937"/>
<circle cx="577.5" cy="181.5" r="3.5" fill="#1f2937"/>
<circle cx="588.5" cy="181.5" r="3.5" fill="#1f2937"/>
<circle cx="753.5" cy="181.5" r="3.5" fill="#1f2937"/>
<circle cx="764.5" cy="181.5" r="3.5" fill="#1f2937"/>
<circle cx="775.5" cy="181.5" r="3.5" fill="#1f2937"/>
<circle cx="786.5" cy="181.5" r="3.5" fill="#1f2937"/>
<circle cx="797.5" cy="181.5" r="3.5" fill="#1f2937"/>
<circle cx="137.5" cy="192.5" r="3.5" fill="#1f2937"/>
<circle cx="148.5" cy="192.5" r="3.5" fill="#1f2937"/>
<circle cx="159.5" cy="192.5" r="3.5" fill="#1f2937"/>
<circle cx="170.5" cy="192.5" r="3.5" fill="#1f2937"/>
<circle cx="181.5" cy="192.5" r="3.5" fill="#1f2937"/>
<circle cx="192.5" cy="192.5" r="3.5" fill="#1f2937"/>
<circle cx="203.5" cy="192.5" r="3.5" fill="#1f2937"/>
<circle cx="236.5" cy="192.5" r="3.5" fill="#1f2937"/>
<circle cx="324.5" cy="192.5" r="3.5" fill="#1f2937"/>
<circle cx="335.5" cy="192.5" r="3.5" fill="#1f2937"/>
<circle cx="346.5" cy="192.5" r="3.5" fill="#1f2937"/>
<circle cx="357.5" cy="192.5" r="3.5" fill="#1f2937"/>
<circle cx="368.5" cy="192.5" r="3.5" fill="#1f2937"/>
<circle cx="379.5" cy="192.5" r="3.5" fill="#1f2937"/>
<circle cx="390.5" cy="192.5" r="3.5" fill="#1f2937"/>
<circle cx="401.5" cy="192.5" r="3.5" fill="#1f2937"/>
<circle cx="412.5" cy="192.5" r="3.5" fill="#1f2937"/>
<circle cx="423.5" cy="192.5" r="3.5" fill="#1f2937"/>
<circle cx="434.5" cy="192.5" r="3.5" fill="#1f2937"/>
<circle cx="445.5" cy="192.5" r="3.5" fill="#1f2937"/>
<circle cx="500.5" cy="192.5" r="3.5" fill="#1f2937"/>
<circle cx="511.5" cy="192.5" r="3.5" fill="#1f2937"/>
<circle cx="522.5" cy="192.5" r="3.5" fill="#1f2937"/>
<circle cx="533.5" cy="192.5" r="3.5" fill="#1f2937"/>
<circle cx="544.5" cy="192.5" r="3.5" fill="#1f2937"/>
<circle cx="555.5" cy="192.5" r="3.5" fill="#1f2937"/>
<circle cx="566.5" cy="192.5" r="3.5" fill="#1f2937"/>
<circle cx="577.5" cy="192.5" r="3.5" fill="#1f2937"/>
<circle cx="764.5" cy="192.5" r="3.5" fill="#1f2937"/>
<circle cx="775.5" cy="192.5" r="3.5" fill="#1f2937"/>
<circle cx="786.5" cy="192.5" r="3.5" fill="#1f2937"/>
<circle cx="863.5" cy="192.5" r="3.5" fill="#1f2937"/>
<circle cx="874.5" cy="192.5" r="3.5" fill="#1f2937"/>
<circle cx="885.5" cy="192.5" r="3.5" fill="#1f2937"/>
<circle cx="896.5" cy="192.5" r="3.5" fill="#1f2937"/>
<circle cx="137.5" cy="203.5" r="3.5" fill="#1f2937"/>
<circle cx="148.5" cy="203.5" r="3.5" fill="#1f2937"/>
<circle cx="159.5" cy="203.5" r="3.5" fill="#1f2937"/>
<circle cx="170.5" cy="203.5" r="3.5" fill="#1f2937"/>
<circle cx="181.5" cy="203.5" r="3.5" fill="#1f2937"/>
<circle cx="192.5" cy="203.5" r="3.5" fill="#1f2937"/>
<circle cx="203.5" cy="203.5" r="3.5" fill="#1f2937"/>
<circle cx="214.5" cy="203.5" r="3.5" fill="#1f2937"/>
<circle cx="269.5" cy="203.5" r="3.5" fill="#1f2937"/>
<circle cx="335.5" cy="203.5" r="3.5" fill="#1f2937"/>
<circle cx="346.5" cy="203.5" r="3.5" fill="#1f2937"/>
<circle cx="357.5" cy="203.5" r="3.5" fill="#1f2937"/>
<circle cx="368.5" cy="203.5" r="3.5" fill="#1f2937"/>
<circle cx="379.5" cy="203.5" r="3.5" fill="#1f2937"/>
<circle cx="390.5" cy="203.5" r="3.5" fill="#1f2937"/>
<circle cx="401.5" cy="203.5" r="3.5" fill="#1f2937"/>
<circle cx="412.5" cy="203.5" r="3.5" fill="#1f2937"/>
<circle cx="423.5" cy="203.5" r="3.5" fill="#1f2937"/>
<circle cx="434.5" cy="203.5" r="3.5" fill="#1f2937"/>
<circle cx="445.5" cy="203.5" r="3.5" fill="#1f2937"/>
<circle cx="500.5" cy="203.5" r="3.5" fill="#1f2937"/>
<circle cx="511.5" cy="203.5" r="3.5" fill="#1f2937"/>
<circle cx="522.5" cy="203.5" r="3.5" fill="#1f2937"/>
<circle cx="533.5" cy="203.5" r="3.5" fill="#1f2937"/>
<circle cx="797.5" cy="203.5" r="3.5" fill="#1f2937"/>
<circle cx="841.5" cy="203.5" r="3.5" fill="#1f2937"/>
<circle cx="852.5" cy="203.5" r="3.5" fill="#1f2937"/>
<circle cx="863.5" cy="203.5" r="3.5" fill="#1f2937"/>
<circle cx="874.5" cy="203.5" r="3.5" fill="#1f2937"/>
<circle cx="885.5" cy="203.5" r="3.5" fill="#1f2937"/>
<circle cx="896.5" cy="203.5" r="3.5" fill="#1f2937"/>
<circle cx="907.5" cy="203.5" r="3.5" fill="#1f2937"/>
<circle cx="918.5" cy="203.5" r="3.5" fill="#1f2937"/>
<circle cx="929.5" cy="203.5" r="3.5" fill="#1f2937"/>
<circle cx="148.5" cy="214.5" r="3.5" fill="#1f2937"/>
<circle cx="159.5" cy="214.5" r="3.5" fill="#1f2937"/>
<circle cx="170.5" cy="214.5" r="3.5" fill="#1f2937"/>
<circle cx="181.5" cy="214.5" r="3.5" fill="#1f2937"/>
<circle cx="192.5" cy="214.5" r="3.5" fill="#1f2937"/>
<circle cx="203.5" cy="214.5" r="3.5" fill="#1f2937"/>
<circle cx="214.5" cy="214.5" r="3.5" fill="#1f2937"/>
<circle cx="225.5" cy="214.5" r="3.5" fill="#1f2937"/>
<circle cx="379.5" cy="214.5" r="3.5" fill="#1f2937"/>
<circle cx="390.5" cy="214.5" r="3.5" fill="#1f2937"/>
<circle cx="401.5" cy="214.5" r="3.5" fill="#1f2937"/>
<circle cx="412.5" cy="214.5" r="3.5" fill="#1f2937"/>
<circle cx="423.5" cy="214.5" r="3.5" fill="#1f2937"/>
<circle cx="434.5" cy="214.5" r="3.5" fill="#1f2937"/>
<circle cx="500.5" cy="214.5" r="3.5" fill="#1f2937"/>
<circle cx="511.5" cy="214.5" r="3.5" fill="#1f2937"/>
<circle cx="522.5" cy="214.5" r="3.5" fill="#1f2937"/>
<circle cx="533.5" cy="214.5" r="3.5" fill="#1f2937"/>
<circle cx="544.5" cy="214.5" r="3.5" fill="#1f2937"/>
<circle cx="555.5" cy="214.5" r="3.5" fill="#1f2937"/>
<circle cx="643.5" cy="214.5" r="3.5" fill="#1f2937"/>
<circle cx="654.5" cy="214.5" r="3.5" fill="#1f2937"/>
<circle cx="687.5" cy="214.5" r="3.5" fill="#1f2937"/>
<circle cx="698.5" cy="214.5" r="3.5" fill="#1f2937"/>
<circle cx="709.5" cy="214.5" r="3.5" fill="#1f2937"/>
<circle cx="720.5" cy="214.5" r="3.5" fill="#1f2937"/>
<circle cx="808.5" cy="214.5" r="3.5" fill="#1f2937"/>
<circle cx="819.5" cy="214.5" r="3.5" fill="#1f2937"/>
<circle cx="830.5" cy="214.5" r="3.5" fill="#1f2937"/>
<circle cx="841.5" cy="214.5" r="3.5" fill="#1f2937"/>
<circle cx="852.5" cy="214.5" r="3.5" fill="#1f2937"/>
<circle cx="863.5" cy="214.5" r="3.5" fill="#1f2937"/>
<circle cx="874.5" cy="214.5" r="3.5" fill="#1f2937"/>
<circle cx="885.5" cy="214.5" r="3.5" fill="#1f2937"/>
<circle cx="896.5" cy="214.5" r="3.5" fill="#1f2937"/>
<circle cx="907.5" cy="214.5" r="3.5" fill="#1f2937"/>
<circle cx="918.5" cy="214.5" r="3.5" fill="#1f2937"/>
<circle cx="929.5" cy="214.5" r="3.5" fill="#1f2937"/>
<circle cx="159.5" cy="225.5" r="3.5" fill="#1f2937"/>
<circle cx="170.5" cy="225.5" r="3.5" fill="#1f2937"/>
<circle cx="181.5" cy="225.5" r="3.5" fill="#1f2937"/>
<circle cx="192.5" cy="225.5" r="3.5" fill="#1f2937"/>
<circle cx="203.5" cy="225.5" r="3.5" fill="#1f2937"/>
<circle cx="214.5" cy="225.5" r="3.5" fill="#1f2937"/>
<circle cx="225.5" cy="225.5" r="3.5" fill="#1f2937"/>
<circle cx="236.5" cy="225.5" r="3.5" fill="#1f2937"/>
<circle cx="500.5" cy="225.5" r="3.5" fill="#1f2937"/>
<circle cx="511.5" cy="225.5" r="3.5" fill="#1f2937"/>
<circle cx="522.5" cy="225.5" r="3.5" fill="#1f2937"/>
<circle cx="544.5" cy="225.5" r="3.5" fill="#1f2937"/>
<circle cx="555.5" cy="225.5" r="3.5" fill="#1f2937"/>
<circle cx="566.5" cy="225.5" r="3.5" fill="#1f2937"/>
<circle cx="643.5" cy="225.5" r="3.5" fill="#1f2937"/>
<circle cx="654.5" cy="225.5" r="3.5" fill="#1f2937"/>
<circle cx="819.5" cy="225.5" r="3.5" fill="#1f2937"/>
<circle cx="830.5" cy="225.5" r="3.5" fill="#1f2937"/>
<circle cx="841.5" cy="225.5" r="3.5" fill="#1f2937"/>
<circle cx="852.5" cy="225.5" r="3.5" fill="#1f2937"/>
<circle cx="863.5" cy="225.5" r="3.5" fill="#1f2937"/>
<circle cx="874.5" cy="225.5" r="3.5" fill="#1f2937"/>
<circle cx="885.5" cy="225.5" r="3.5" fill="#1f2937"/>
<circle cx="896.5" cy="225.5" r="3.5" fill="#1f2937"/>
<circle cx="907.5" cy="225.5" r="3.5" fill="#1f2937"/>
<circle cx="918.5" cy="225.5" r="3.5" fill="#1f2937"/>
<circle cx="929.5" cy="225.5" r="3.5" fill="#1f2937"/>
<circle cx="170.5" cy="236.5" r="3.5" fill="#1f2937"/>
<circle cx="181.5" cy="236.5" r="3.5" fill="#1f2937"/>
<circle cx="192.5" cy="236.5" r="3.5" fill="#1f2937"/>
<circle cx="203.5" cy="236.5" r="3.5" fill="#1f2937"/>
<circle cx="214.5" cy="236.5" r="3.5" fill="#1f2937"/>
<circle cx="225.5" cy="236.5" r="3.5" fill="#1f2937"/>
<circle cx="236.5" cy="236.5" r="3.5" fill="#1f2937"/>
<circle cx="500.5" cy="236.5" r="3.5" fill="#1f2937"/>
<circle cx="511.5" cy="236.5" r="3.5" fill="#1f2937"/>
<circle cx="555.5" cy="236.5" r="3.5" fill="#1f2937"/>
<circle cx="566.5" cy="236.5" r="3.5" fill="#1f2937"/>
<circle cx="830.5" cy="236.5" r="3.5" fill="#1f2937"/>
<circle cx="841.5" cy="236.5" r="3.5" fill="#1f2937"/>
<circle cx="852.5" cy="236.5" r="3.5" fill="#1f2937"/>
<circle cx="863.5" cy="236.5" r="3.5" fill="#1f2937"/>
<circle cx="874.5" cy="236.5" r="3.5" fill="#1f2937"/>
<circle cx="885.5" cy="236.5" r="3.5" fill="#1f2937"/>
<circle cx="896.5" cy="236.5" r="3.5" fill="#1f2937"/>
<circle cx="907.5" cy="236.5" r="3.5" fill="#1f2937"/>
<circle cx="918.5" cy="236.5" r="3.5" fill="#1f2937"/>
<circle cx="929.5" cy="236.5" r="3.5" fill="#1f2937"/>
<circle cx="181.5" cy="247.5" r="3.5" fill="#1f2937"/>
<circle cx="192.5" cy="247.5" r="3.5" fill="#1f2937"/>
<circle cx="203.5" cy="247.5" r="3.5" fill="#1f2937"/>
<circle cx="214.5" cy="247.5" r="3.5" fill="#1f2937"/>
<circle cx="225.5" cy="247.5" r="3.5" fill="#1f2937"/>
<circle cx="236.5" cy="247.5" r="3.5" fill="#1f2937"/>
<circle cx="500.5" cy="247.5" r="3.5" fill="#1f2937"/>
<circle cx="511.5" cy="247.5" r="3.5" fill="#1f2937"/>
<circle cx="522.5" cy="247.5" r="3.5" fill="#1f2937"/>
<circle cx="555.5" cy="247.5" r="3.5" fill="#1f2937"/>
<circle cx="566.5" cy="247.5" r="3.5" fill="#1f2937"/>
<circle cx="577.5" cy="247.5" r="3.5" fill="#1f2937"/>
<circle cx="841.5" cy="247.5" r="3.5" fill="#1f2937"/>
<circle cx="852.5" cy="247.5" r="3.5" fill="#1f2937"/>
<circle cx="863.5" cy="247.5" r="3.5" fill="#1f2937"/>
<circle cx="874.5" cy="247.5" r="3.5" fill="#1f2937"/>
<circle cx="885.5" cy="247.5" r="3.5" fill="#1f2937"/>
<circle cx="896.5" cy="247.5" r="3.5" fill="#1f2937"/>
<circle cx="907.5" cy="247.5" r="3.5" fill="#1f2937"/>
<circle cx="918.5" cy="247.5" r="3.5" fill="#1f2937"/>
<circle cx="929.5" cy="247.5" r="3.5" fill="#1f2937"/>
<circle cx="203.5" cy="258.5" r="3.5" fill="#1f2937"/>
<circle cx="214.5" cy="258.5" r="3.5" fill="#1f2937"/>
<circle cx="225.5" cy="258.5" r="3.5" fill="#1f2937"/>
<circle cx="236.5" cy="258.5" r="3.5" fill="#1f2937"/>
<circle cx="511.5" cy="258.5" r="3.5" fill="#1f2937"/>
<circle cx="522.5" cy="258.5" r="3.5" fill="#1f2937"/>
<circle cx="566.5" cy="258.5" r="3.5" fill="#1f2937"/>
<circle cx="577.5" cy="258.5" r="3.5" fill="#1f2937"/>
<circle cx="852.5" cy="258.5" r="3.5" fill="#1f2937"/>
<circle cx="863.5" cy="258.5" r="3.5" fill="#1f2937"/>
<circle cx="874.5" cy="258.5" r="3.5" fill="#1f2937"/>
<circle cx="885.5" cy="258.5" r="3.5" fill="#1f2937"/>
<circle cx="896.5" cy="258.5" r="3.5" fill="#1f2937"/>
<circle cx="907.5" cy="258.5" r="3.5" fill="#1f2937"/>
<circle cx="918.5" cy="258.5" r="3.5" fill="#1f2937"/>
<circle cx="929.5" cy="258.5" r="3.5" fill="#1f2937"/>
<circle cx="863.5" cy="269.5" r="3.5" fill="#1f2937"/>
<circle cx="874.5" cy="269.5" r="3.5" fill="#1f2937"/>
<circle cx="885.5" cy="269.5" r="3.5" fill="#1f2937"/>
<circle cx="896.5" cy="269.5" r="3.5" fill="#1f2937"/>
<circle cx="907.5" cy="269.5" r="3.5" fill="#1f2937"/>
<circle cx="918.5" cy="269.5" r="3.5" fill="#1f2937"/>
<circle cx="929.5" cy="269.5" r="3.5" fill="#1f2937"/>
<circle cx="225.5" cy="280.5" r="3.5" fill="#1f2937"/>
<circle cx="236.5" cy="280.5" r="3.5" fill="#1f2937"/>
<circle cx="247.5" cy="280.5" r="3.5" fill="#1f2937"/>
<circle cx="258.5" cy="280.5" r="3.5" fill="#1f2937"/>
<circle cx="269.5" cy="280.5" r="3.5" fill="#1f2937"/>
<circle cx="280.5" cy="280.5" r="3.5" fill="#1f2937"/>
<circle cx="291.5" cy="280.5" r="3.5" fill="#1f2937"/>
<circle cx="302.5" cy="280.5" r="3.5" fill="#1f2937"/>
<circle cx="313.5" cy="280.5" r="3.5" fill="#1f2937"/>
<circle cx="324.5" cy="280.5" r="3.5" fill="#1f2937"/>
<circle cx="874.5" cy="280.5" r="3.5" fill="#1f2937"/>
<circle cx="885.5" cy="280.5" r="3.5" fill="#1f2937"/>
<circle cx="896.5" cy="280.5" r="3.5" fill="#1f2937"/>
<circle cx="907.5" cy="280.5" r="3.5" fill="#1f2937"/>
<circle cx="918.5" cy="280.5" r="3.5" fill="#1f2937"/>
<circle cx="929.5" cy="280.5" r="3.5" fill="#1f2937"/>
<circle cx="236.5" cy="291.5" r="3.5" fill="#1f2937"/>
<circle cx="247.5" cy="291.5" r="3.5" fill="#1f2937"/>
<circle cx="258.5" cy="291.5" r="3.5" fill="#1f2937"/>
<circle cx="269.5" cy="291.5" r="3.5" fill="#1f2937"/>
<circle cx="280.5" cy="291.5" r="3.5" fill="#1f2937"/>
<circle cx="291.5" cy="291.5" r="3.5" fill="#1f2937"/>
<circle cx="302.5" cy="291.5" r="3.5" fill="#1f2937"/>
<circle cx="313.5" cy="291.5" r="3.5" fill="#1f2937"/>
<circle cx="324.5" cy="291.5" r="3.5" fill="#1f2937"/>
<circle cx="335.5" cy="291.5" r="3.5" fill="#1f2937"/>
<circle cx="346.5" cy="291.5" r="3.5" fill="#1f2937"/>
<circle cx="357.5" cy="291.5" r="3.5" fill="#1f2937"/>
<circle cx="368.5" cy="291.5" r="3.5" fill="#1f2937"/>
<circle cx="379.5" cy="291.5" r="3.5" fill="#1f2937"/>
<circle cx="390.5" cy="291.5" r="3.5" fill="#1f2937"/>
<circle cx="885.5" cy="291.5" r="3.5" fill="#1f2937"/>
<circle cx="896.5" cy="291.5" r="3.5" fill="#1f2937"/>
<circle cx="907.5" cy="291.5" r="3.5" fill="#1f2937"/>
<circle cx="918.5" cy="291.5" r="3.5" fill="#1f2937"/>
<circle cx="929.5" cy="291.5" r="3.5" fill="#1f2937"/>
<circle cx="280.5" cy="302.5" r="3.5" fill="#1f2937"/>
<circle cx="291.5" cy="302.5" r="3.5" fill="#1f2937"/>
<circle cx="302.5" cy="302.5" r="3.5" fill="#1f2937"/>
<circle cx="313.5" cy="302.5" r="3.5" fill="#1f2937"/>
<circle cx="324.5" cy="302.5" r="3.5" fill="#1f2937"/>
<circle cx="335.5" cy="302.5" r="3.5" fill="#1f2937"/>
<circle cx="346.5" cy="302.5" r="3.5" fill="#1f2937"/>
<circle cx="357.5" cy="302.5" r="3.5" fill="#1f2937"/>
<circle cx="368.5" cy="302.5" r="3.5" fill="#1f2937"/>
<circle cx="379.5" cy="302.5" r="3.5" fill="#1f2937"/>
<circle cx="390.5" cy="302.5" r="3.5" fill="#1f2937"/>
<circle cx="401.5" cy="302.5" r="3.5" fill="#1f2937"/>
<circle cx="907.5" cy="302.5" r="3.5" fill="#1f2937"/>
<circle cx="918.5" cy="302.5" r="3.5" fill="#1f2937"/>
<circle cx="929.5" cy="302.5" r="3.5" fill="#1f2937"/>
<circle cx="346.5" cy="313.5" r="3.5" fill="#1f2937"/>
<circle cx="357.5" cy="313.5" r="3.5" fill="#1f2937"/>
<circle cx="368.5" cy="313.5" r="3.5" fill="#1f2937"/>
<circle cx="379.5" cy="313.5" r="3.5" fill="#1f2937"/>
<circle cx="390.5" cy="313.5" r="3.5" fill="#1f2937"/>
<circle cx="401.5" cy="313.5" r="3.5" fill="#1f2937"/>
<circle cx="918.5" cy="313.5" r="3.5" fill="#1f2937"/>
<circle cx="929.5" cy="313.5" r="3.5" fill="#1f2937"/>
<circle cx="423.5" cy="324.5" r="3.5" fill="#1f2937"/>
<circle cx="445.5" cy="324.5" r="3.5" fill="#1f2937"/>
<circle cx="467.5" cy="324.5" r="3.5" fill="#1f2937"/>
<circle cx="478.5" cy="324.5" r="3.5" fill="#1f2937"/>
<circle cx="489.5" cy="324.5" r="3.5" fill="#1f2937"/>
<circle cx="522.5" cy="324.5" r="3.5" fill="#1f2937"/>
<circle cx="533.5" cy="324.5" r="3.5" fill="#1f2937"/>
<circle cx="544.5" cy="324.5" r="3.5" fill="#1f2937"/>
<circle cx="555.5" cy="324.5" r="3.5" fill="#1f2937"/>
<circle cx="566.5" cy="324.5" r="3.5" fill="#1f2937"/>
<circle cx="577.5" cy="324.5" r="3.5" fill="#1f2937"/>
<circle cx="929.5" cy="324.5" r="3.5" fill="#1f2937"/>
<circle cx="621.5" cy="335.5" r="3.5" fill="#1f2937"/>
<circle cx="511.5" cy="346.5" r="3.5" fill="#1f2937"/>
<circle cx="522.5" cy="346.5" r="3.5" fill="#1f2937"/>
<circle cx="533.5" cy="346.5" r="3.5" fill="#1f2937"/>
<circle cx="599.5" cy="346.5" r="3.5" fill="#1f2937"/>
<circle cx="610.5" cy="346.5" r="3.5" fill="#1f2937"/>
</svg>